<?xml version="1.0" encoding="utf-8"?>
<!-- Generator: Adobe Illustrator 24.2.0, SVG Export Plug-In . SVG Version: 6.00 Build 0)  -->
<svg version="1.1" id="Layer_1" xmlns="http://www.w3.org/2000/svg" xmlns:xlink="http://www.w3.org/1999/xlink" x="0px" y="0px"
	 viewBox="0 0 512 512" style="enable-background:new 0 0 512 512;" xml:space="preserve">
<style type="text/css">
	.st0{fill:#FFFFFF;fill-opacity:0;}
	.st1{fill:#A6A6A6;}
	.st2{fill:#FFFFFF;stroke:#FFFFFF;stroke-width:0.2;stroke-miterlimit:10;}
	.st3{fill:#FFFFFF;}
	.st4{fill:url(#XMLID_40_);}
	.st5{fill:url(#XMLID_41_);}
	.st6{fill:url(#XMLID_43_);}
	.st7{fill:url(#XMLID_44_);}
	.st8{opacity:0.2;enable-background:new    ;}
	.st9{opacity:0.12;enable-background:new    ;}
	.st10{opacity:0.25;fill:#FFFFFF;enable-background:new    ;}
</style>
<g id="XMLID_19_">
	<rect id="XMLID_38_" x="473.9" y="536.65" class="st0" width="435.81" height="168.7"/>
	<g id="XMLID_37_">
		<path id="XMLID_65_" d="M867.53,677.23H516.08c-7.73,0-14.06-6.33-14.06-14.06v-84.35c0-7.73,6.33-14.06,14.06-14.06h351.46
			c7.73,0,14.06,6.33,14.06,14.06v84.35C881.59,670.91,875.27,677.23,867.53,677.23z"/>
	</g>
	<g id="XMLID_92_">
		<g id="XMLID_93_">
			<path id="XMLID_94_" class="st1" d="M867.53,567.02c6.51,0,11.81,5.3,11.81,11.81v84.35c0,6.51-5.3,11.81-11.81,11.81H516.08
				c-6.51,0-11.81-5.3-11.81-11.81v-84.35c0-6.51,5.3-11.81,11.81-11.81H867.53 M867.53,564.77H516.08
				c-7.73,0-14.06,6.33-14.06,14.06v84.35c0,7.73,6.33,14.06,14.06,14.06h351.46c7.73,0,14.06-6.33,14.06-14.06v-84.35
				C881.59,571.09,875.27,564.77,867.53,564.77L867.53,564.77z"/>
		</g>
	</g>
	<g id="XMLID_76_">
		<path id="XMLID_90_" class="st2" d="M635.34,593.57c0,2.36-0.7,4.23-2.1,5.63c-1.59,1.66-3.65,2.5-6.2,2.5
			c-2.44,0-4.51-0.84-6.21-2.53c-1.7-1.69-2.56-3.78-2.56-6.28c0-2.5,0.85-4.59,2.56-6.28c1.7-1.69,3.77-2.53,6.21-2.53
			c1.21,0,2.36,0.24,3.46,0.71c1.1,0.47,1.98,1.1,2.64,1.88l-1.48,1.48c-1.12-1.33-2.66-2-4.62-2c-1.78,0-3.31,0.62-4.61,1.87
			c-1.3,1.25-1.94,2.87-1.94,4.87s0.65,3.62,1.94,4.87c1.3,1.25,2.83,1.87,4.61,1.87c1.88,0,3.45-0.63,4.71-1.88
			c0.82-0.82,1.29-1.96,1.41-3.42h-6.13v-2.03h8.17C635.31,592.74,635.34,593.16,635.34,593.57z"/>
		<path id="XMLID_88_" class="st2" d="M648.3,586.52h-7.68v5.35h6.93v2.03h-6.93v5.35h7.68v2.07h-9.85v-16.87h9.85V586.52z"/>
		<path id="XMLID_86_" class="st2" d="M657.44,601.32h-2.17v-14.8h-4.71v-2.07h11.59v2.07h-4.71V601.32z"/>
		<path id="XMLID_84_" class="st2" d="M670.54,601.32v-16.87h2.17v16.87H670.54z"/>
		<path id="XMLID_82_" class="st2" d="M682.33,601.32h-2.17v-14.8h-4.71v-2.07h11.59v2.07h-4.71V601.32z"/>
		<path id="XMLID_79_" class="st2" d="M708.98,599.14c-1.66,1.71-3.72,2.56-6.19,2.56c-2.47,0-4.53-0.85-6.18-2.56
			c-1.66-1.7-2.48-3.79-2.48-6.25s0.83-4.55,2.48-6.25c1.66-1.71,3.72-2.56,6.18-2.56c2.45,0,4.51,0.86,6.18,2.57
			c1.66,1.71,2.5,3.79,2.5,6.24C711.47,595.35,710.64,597.43,708.98,599.14z M698.21,597.73c1.25,1.26,2.78,1.9,4.58,1.9
			s3.34-0.63,4.58-1.9c1.25-1.26,1.88-2.88,1.88-4.84c0-1.96-0.63-3.58-1.88-4.84c-1.25-1.26-2.78-1.9-4.58-1.9s-3.33,0.63-4.58,1.9
			c-1.25,1.26-1.87,2.88-1.87,4.84C696.34,594.85,696.97,596.46,698.21,597.73z"/>
		<path id="XMLID_77_" class="st2" d="M714.51,601.32v-16.87h2.64l8.2,13.12h0.09l-0.09-3.25v-9.87h2.17v16.87h-2.26l-8.58-13.76
			h-0.09l0.09,3.25v10.51H714.51z"/>
	</g>
	<path id="XMLID_52_" class="st3" d="M693.59,625.92c-6.61,0-12,5.03-12,11.96c0,6.89,5.39,11.96,12,11.96c6.61,0,12-5.07,12-11.96
		C705.6,630.95,700.21,625.92,693.59,625.92z M693.59,645.13c-3.62,0-6.75-2.99-6.75-7.25c0-4.3,3.13-7.25,6.75-7.25
		s6.75,2.94,6.75,7.25C700.34,642.14,697.22,645.13,693.59,645.13z M667.41,625.92c-6.61,0-12,5.03-12,11.96
		c0,6.89,5.39,11.96,12,11.96c6.61,0,12-5.07,12-11.96C679.41,630.95,674.02,625.92,667.41,625.92z M667.41,645.13
		c-3.62,0-6.75-2.99-6.75-7.25c0-4.3,3.13-7.25,6.75-7.25c3.62,0,6.75,2.94,6.75,7.25C674.16,642.14,671.03,645.13,667.41,645.13z
		 M636.26,629.59v5.07h12.14c-0.36,2.85-1.31,4.94-2.76,6.39c-1.77,1.77-4.53,3.71-9.38,3.71c-7.47,0-13.32-6.02-13.32-13.5
		s5.84-13.5,13.32-13.5c4.03,0,6.98,1.59,9.15,3.62l3.58-3.58c-3.03-2.9-7.07-5.12-12.73-5.12c-10.24,0-18.84,8.33-18.84,18.57
		c0,10.24,8.61,18.57,18.84,18.57c5.53,0,9.69-1.81,12.95-5.21c3.35-3.35,4.39-8.06,4.39-11.87c0-1.18-0.09-2.26-0.27-3.17H636.26z
		 M763.65,633.53c-1-2.67-4.03-7.61-10.24-7.61c-6.16,0-11.28,4.85-11.28,11.96c0,6.7,5.07,11.96,11.87,11.96
		c5.48,0,8.65-3.35,9.97-5.3l-4.08-2.72c-1.36,1.99-3.22,3.31-5.89,3.31c-2.67,0-4.58-1.22-5.8-3.62l15.99-6.61L763.65,633.53z
		 M747.34,637.52c-0.14-4.62,3.58-6.98,6.25-6.98c2.08,0,3.85,1.04,4.44,2.54L747.34,637.52z M734.34,649.12h5.25v-35.15h-5.25
		V649.12z M725.74,628.6h-0.18c-1.18-1.4-3.44-2.67-6.3-2.67c-5.98,0-11.46,5.25-11.46,12c0,6.7,5.48,11.91,11.46,11.91
		c2.85,0,5.12-1.27,6.3-2.72h0.18v1.72c0,4.58-2.45,7.02-6.39,7.02c-3.22,0-5.21-2.31-6.02-4.26l-4.58,1.9
		c1.31,3.17,4.8,7.07,10.6,7.07c6.16,0,11.37-3.62,11.37-12.46v-21.47h-4.98V628.6z M719.71,645.13c-3.62,0-6.66-3.03-6.66-7.2
		c0-4.21,3.04-7.29,6.66-7.29c3.58,0,6.39,3.08,6.39,7.29C726.1,642.1,723.29,645.13,719.71,645.13z M788.26,613.97h-12.57v35.15
		h5.25V635.8h7.33c5.82,0,11.53-4.21,11.53-10.92C799.79,618.18,794.08,613.97,788.26,613.97z M788.4,630.91h-7.46v-12.05h7.46
		c3.92,0,6.15,3.25,6.15,6.02C794.55,627.61,792.32,630.91,788.4,630.91z M820.82,625.86c-3.8,0-7.73,1.67-9.36,5.38l4.66,1.94
		c0.99-1.94,2.85-2.58,4.79-2.58c2.71,0,5.47,1.63,5.52,4.52v0.36c-0.95-0.54-2.98-1.36-5.47-1.36c-5.02,0-10.13,2.76-10.13,7.91
		c0,4.7,4.11,7.73,8.73,7.73c3.53,0,5.47-1.58,6.69-3.44h0.18v2.71h5.06v-13.48C831.49,629.34,826.84,625.86,820.82,625.86z
		 M820.19,645.12c-1.72,0-4.12-0.86-4.12-2.98c0-2.71,2.98-3.75,5.56-3.75c2.31,0,3.39,0.5,4.79,1.18
		C826.02,642.82,823.22,645.12,820.19,645.12z M849.94,626.63l-6.01,15.24h-0.18l-6.24-15.24h-5.65l9.36,21.3l-5.34,11.85h5.47
		l14.43-33.15H849.94z M802.69,649.12h5.25v-35.15h-5.25V649.12z"/>
	<g id="XMLID_39_">
		
			<linearGradient id="XMLID_40_" gradientUnits="userSpaceOnUse" x1="563.3129" y1="-75.2556" x2="516.1266" y2="-122.4419" gradientTransform="matrix(1 0 0 -1 0 514)">
			<stop  offset="0" style="stop-color:#00A0FF"/>
			<stop  offset="6.574450e-03" style="stop-color:#00A1FF"/>
			<stop  offset="0.2601" style="stop-color:#00BEFF"/>
			<stop  offset="0.5122" style="stop-color:#00D2FF"/>
			<stop  offset="0.7604" style="stop-color:#00DFFF"/>
			<stop  offset="1" style="stop-color:#00E3FF"/>
		</linearGradient>
		<path id="XMLID_8_" class="st4" d="M531.36,585.96c-0.82,0.87-1.3,2.21-1.3,3.95v62.18c0,1.74,0.48,3.08,1.3,3.95l0.21,0.2
			l34.83-34.83V621v-0.41l-34.83-34.83L531.36,585.96z"/>
		
			<linearGradient id="XMLID_41_" gradientUnits="userSpaceOnUse" x1="597.1501" y1="-107.0041" x2="529.1169" y2="-107.0041" gradientTransform="matrix(1 0 0 -1 0 514)">
			<stop  offset="0" style="stop-color:#FFE000"/>
			<stop  offset="0.4087" style="stop-color:#FFBD00"/>
			<stop  offset="0.7754" style="stop-color:#FFA500"/>
			<stop  offset="1" style="stop-color:#FF9C00"/>
		</linearGradient>
		<path id="XMLID_7_" class="st5" d="M578.01,633.03l-11.61-11.62V621v-0.41l11.61-11.61l0.26,0.15l13.76,7.82
			c3.93,2.23,3.93,5.89,0,8.12l-13.76,7.82L578.01,633.03z"/>
		
			<linearGradient id="XMLID_43_" gradientUnits="userSpaceOnUse" x1="571.8244" y1="-113.4558" x2="507.836" y2="-177.4442" gradientTransform="matrix(1 0 0 -1 0 514)">
			<stop  offset="0" style="stop-color:#FF3A44"/>
			<stop  offset="1" style="stop-color:#C31162"/>
		</linearGradient>
		<path id="XMLID_6_" class="st6" d="M578.28,632.88L566.4,621l-35.04,35.04c1.3,1.37,3.43,1.54,5.84,0.17L578.28,632.88"/>
		
			<linearGradient id="XMLID_44_" gradientUnits="userSpaceOnUse" x1="522.5372" y1="-51.2623" x2="551.1107" y2="-79.8358" gradientTransform="matrix(1 0 0 -1 0 514)">
			<stop  offset="0" style="stop-color:#32A071"/>
			<stop  offset="0.0685" style="stop-color:#2DA771"/>
			<stop  offset="0.4762" style="stop-color:#15CF74"/>
			<stop  offset="0.8009" style="stop-color:#06E775"/>
			<stop  offset="1" style="stop-color:#00F076"/>
		</linearGradient>
		<path id="XMLID_5_" class="st7" d="M578.28,609.13l-41.07-23.34c-2.41-1.37-4.55-1.2-5.84,0.17L566.4,621L578.28,609.13z"/>
		<g id="XMLID_42_">
			<path id="XMLID_4_" class="st8" d="M578.02,632.62l-40.81,23.19c-2.28,1.3-4.32,1.21-5.63,0.03l0,0l-0.21,0.21l0,0l0.21,0.2l0,0
				c1.31,1.18,3.35,1.27,5.63-0.03l41.07-23.34L578.02,632.62z"/>
			<path id="XMLID_3_" class="st9" d="M531.36,655.63c-0.82-0.87-1.3-2.21-1.3-3.95v0.41c0,1.74,0.48,3.08,1.3,3.95l0.21-0.21
				L531.36,655.63z"/>
		</g>
		<path id="XMLID_2_" class="st9" d="M592.03,624.65l-14.02,7.97l0.26,0.26l13.76-7.82c1.96-1.12,2.95-2.59,2.95-4.06l0,0
			C594.82,622.33,593.82,623.64,592.03,624.65z"/>
		<path id="XMLID_1_" class="st10" d="M537.2,586.2l54.83,31.15c1.78,1.01,2.78,2.32,2.95,3.65l0,0c0-1.47-0.98-2.94-2.95-4.06
			l-54.83-31.15c-3.93-2.23-7.14-0.38-7.14,4.12v0.41C530.06,585.82,533.27,583.97,537.2,586.2z"/>
	</g>
</g>
</svg>
